<svg width="48" height="48" viewBox="0 0 48 48" fill="none" xmlns="http://www.w3.org/2000/svg">
<circle cx="24" cy="24" r="24" fill="#C4C4C4"/>
<g clip-path="url(#clip0)">
<path d="M34.9639 30.9419C34.9278 31.1265 34.8966 31.311 34.8548 31.4956C34.402 33.4963 32.6218 34.9499 30.5588 34.9959C29.9682 35.009 29.3775 35.0074 28.7869 34.9959C27.7976 34.9795 27.0167 34.2002 27.0036 33.2322C26.9839 32.2495 27.7599 31.4349 28.7426 31.4062C29.2676 31.3873 29.7926 31.4029 30.3176 31.3996C31.0034 31.3947 31.3676 31.0264 31.3684 30.3398L31.3684 18.6882C31.3684 17.9884 31.0026 17.6218 30.3069 17.6168C29.7606 17.6135 29.2118 17.6332 28.6663 17.6029C27.3858 17.5315 26.5991 16.1066 27.2119 14.9779C27.5171 14.4168 27.9912 14.0501 28.6376 14.0255C29.4227 13.996 30.2167 13.9804 30.9968 14.0567C32.9819 14.2519 34.643 15.8974 34.9179 17.8711C34.9277 17.9433 34.9482 18.0122 34.9638 18.0827L34.9638 30.9419L34.9639 30.9419Z" fill="#696969"/>
<path d="M21.4957 23.0104C21.4104 22.9169 21.3604 22.8587 21.307 22.8054C20.5474 22.0392 19.7829 21.2763 19.0281 20.5052C18.4195 19.8818 18.344 18.927 18.8353 18.2395C19.3571 17.5095 20.2988 17.2478 21.0863 17.6342C21.2816 17.7326 21.4588 17.8614 21.613 18.0164C23.4464 19.8432 25.2764 21.675 27.1026 23.5092C27.8556 24.2655 27.854 25.3483 27.0993 26.1046C25.3118 27.897 23.5228 29.6861 21.7304 31.4726C20.984 32.2166 19.8716 32.2215 19.1441 31.4972C18.4337 30.7893 18.4501 29.6794 19.1908 28.932C19.8939 28.2208 20.601 27.5154 21.3114 26.814V26.8132C21.3672 26.7664 21.4263 26.7237 21.4886 26.686L21.455 26.6073H21.2155H13.8621C12.9893 26.6073 12.2436 26.0388 12.0525 25.2398C11.7769 24.0889 12.6193 23.0201 13.8194 23.0151C15.4027 23.0077 16.9858 23.0151 18.569 23.0151H21.4952L21.4957 23.0104Z" fill="#696969"/>
</g>
<defs>
<clipPath id="clip0">
<rect width="23" height="21" fill="white" transform="translate(12 14)"/>
</clipPath>
</defs>
</svg>
