<svg width="48" height="48" viewBox="0 0 48 48" fill="none" xmlns="http://www.w3.org/2000/svg">
<circle cx="24" cy="24" r="24" fill="#C4C4C4"/>
<g clip-path="url(#clip0)">
<path d="M14 18.0644C14.0361 17.8799 14.0673 17.6953 14.1091 17.5107C14.5619 15.51 16.342 14.0564 18.4051 14.0105C18.9957 13.9973 19.5863 13.999 20.1769 14.0105C21.1662 14.0269 21.9472 14.8062 21.9603 15.7741C21.98 16.7569 21.204 17.5714 20.2213 17.6001C19.6963 17.619 19.1713 17.6034 18.6463 17.6067C17.9605 17.6116 17.5963 17.9799 17.5954 18.6665V30.3182C17.5954 31.0179 17.9613 31.3846 18.6569 31.3895C19.2033 31.3928 19.752 31.3731 20.2975 31.4035C21.5781 31.4748 22.3647 32.8997 21.752 34.0285C21.4468 34.5896 20.9727 34.9562 20.3263 34.9809C19.5412 35.0104 18.7472 35.026 17.9671 34.9497C15.982 34.7545 14.3209 33.1089 14.046 31.1353C14.0362 31.0631 14.0156 30.9942 14.0001 30.9236V18.0645L14 18.0644Z" fill="#696969"/>
<path d="M28.8295 23.0104C28.7441 22.9169 28.6941 22.8587 28.6408 22.8054C27.8812 22.0392 27.1166 21.2763 26.3619 20.5052C25.7532 19.8818 25.6777 18.927 26.1691 18.2395C26.6908 17.5095 27.6325 17.2478 28.4201 17.6342C28.6153 17.7326 28.7925 17.8614 28.9467 18.0164C30.7801 19.8432 32.6102 21.675 34.4363 23.5092C35.1894 24.2655 35.1877 25.3483 34.433 26.1046C32.6456 27.897 30.8565 29.6861 29.0642 31.4726C28.3177 32.2166 27.2054 32.2215 26.4778 31.4972C25.7674 30.7893 25.7838 29.6794 26.5246 28.932C27.2276 28.2208 27.9347 27.5154 28.6452 26.814V26.8132C28.7009 26.7664 28.76 26.7238 28.8224 26.686L28.7887 26.6073H28.5492H21.1958C20.323 26.6073 19.5774 26.0388 19.3862 25.2398C19.1106 24.0889 19.9531 23.0201 21.1532 23.0151C22.7364 23.0077 24.3196 23.0151 25.9028 23.0151H28.8289L28.8295 23.0104Z" fill="#696969"/>
</g>
<defs>
<clipPath id="clip0">
<rect width="21" height="21" fill="white" transform="translate(14 14)"/>
</clipPath>
</defs>
</svg>
