<svg width="48" height="48" viewBox="0 0 48 48" fill="none" xmlns="http://www.w3.org/2000/svg">
<circle cx="24" cy="24" r="24" fill="#C4C4C4"/>
<path fill-rule="evenodd" clip-rule="evenodd" d="M21.835 15.7545C18.9632 16.4931 16.84 19.1004 16.84 22.2051V26.6451C16.84 27.0541 16.5076 27.3851 16.1014 27.3851C15.2834 27.3851 14.62 28.05 14.62 28.8651V29.9765C14.62 30.1803 14.7848 30.3451 14.9914 30.3451H32.0085C32.2137 30.3451 32.3799 30.1774 32.3799 29.9765V28.8651C32.3799 28.0471 31.7136 27.3851 30.8985 27.3851C30.4909 27.3851 30.1599 27.0556 30.1599 26.6451V22.2051C30.1599 19.102 28.0382 16.4945 25.1649 15.7545V14.99C25.1649 14.0678 24.4191 13.325 23.4999 13.325C22.5821 13.325 21.8349 14.0707 21.8349 14.99L21.835 15.7545ZM20.91 31.0851H26.09C26.09 32.516 24.9309 33.6751 23.5 33.6751C22.0691 33.6751 20.91 32.516 20.91 31.0851Z" fill="#696969"/>
</svg>
