<?xml version="1.0" encoding="UTF-8"?>
<svg width="100pt" height="100pt" version="1.1" viewBox="0 0 100 100" xmlns="http://www.w3.org/2000/svg">
 <path d="m50 16.668c-9.9453 0-19.484 3.9492-26.516 10.98-7.0352 7.0352-10.984 16.574-10.984 26.52 0 9.9453 3.9492 19.484 10.984 26.516 7.0312 7.0312 16.57 10.984 26.516 10.984s19.484-3.9531 26.516-10.984c7.0352-7.0312 10.984-16.57 10.984-26.516 0-9.9453-3.9492-19.484-10.984-26.52-7.0312-7.0312-16.57-10.98-26.516-10.98zm0 66.668v-0.003907c-7.7344 0-15.152-3.0703-20.625-8.543-5.4688-5.4688-8.543-12.887-8.543-20.621 0-7.7383 3.0742-15.156 8.543-20.625 5.4727-5.4688 12.891-8.543 20.625-8.543s15.152 3.0742 20.625 8.543c5.4688 5.4688 8.543 12.887 8.543 20.625 0 7.7344-3.0742 15.152-8.543 20.621-5.4727 5.4727-12.891 8.543-20.625 8.543zm14.375-67.379c-1.0312-0.55469-1.7852-1.5156-2.0703-2.6523-0.28516-1.1367-0.082032-2.3438 0.56641-3.3203 0.64844-0.97656 1.6758-1.6367 2.8359-1.8164 1.1562-0.17969 2.3398 0.13672 3.25 0.875l12.5 8.332c1.5195 1.0195 2.1953 2.9062 1.668 4.6562s-2.1328 2.9531-3.957 2.9688c-0.82031 0.007812-1.6211-0.23828-2.293-0.70703zm-47 7.168c-1.2539-1.9102-0.73438-4.4766 1.168-5.75l12.5-8.332c0.91016-0.73828 2.0938-1.0547 3.25-0.875 1.1602 0.17969 2.1875 0.83984 2.8359 1.8164 0.64844 0.97656 0.85156 2.1836 0.56641 3.3203-0.28516 1.1367-1.0391 2.0977-2.0703 2.6523l-12.5 8.332v0.003907c-0.67188 0.46875-1.4727 0.71484-2.293 0.70703-1.3906-0.007812-2.6914-0.71094-3.457-1.875zm43.918 36.418c0.78906 0.78125 1.2305 1.8477 1.2305 2.957s-0.44141 2.1758-1.2305 2.957c-0.78516 0.78906-1.8477 1.2344-2.9609 1.2344-1.1094 0-2.1758-0.44531-2.957-1.2344l-8.332-8.332c-0.78125-0.78516-1.2148-1.8516-1.2109-2.957v-16.668c0-2.3008 1.8672-4.168 4.168-4.168s4.168 1.8672 4.168 4.168v14.957z"/>
</svg>
