<svg width="48" height="48" viewBox="0 0 48 48" fill="none" xmlns="http://www.w3.org/2000/svg">
<circle cx="24" cy="24" r="24" fill="#C4C4C4"/>
<path d="M28.4662 23.4939C27.3 24.5939 25.7162 25.2539 24 25.2539C22.2838 25.2539 20.7 24.5939 19.5338 23.4939C17.3776 25.2315 15.97 27.9377 15.97 30.0277C15.97 33.3501 17.18 34.4501 24 34.4501C30.82 34.4501 32.03 33.3501 32.03 30.0277C32.03 27.9377 30.6223 25.2323 28.4662 23.4939Z" fill="#696969"/>
<path d="M29.1262 18.6763C29.1262 21.507 26.8307 23.8025 24 23.8025C21.1693 23.8025 18.8738 21.507 18.8738 18.6763C18.8738 15.8455 21.1693 13.55 24 13.55C26.8307 13.55 29.1262 15.8455 29.1262 18.6763Z" fill="#696969"/>
</svg>
