<svg width="48" height="48" viewBox="0 0 48 48" fill="none" xmlns="http://www.w3.org/2000/svg">
<circle cx="24" cy="24" r="24" fill="#C4C4C4"/>
<path d="M27.6045 13.8381H17V33.8508H28.4032" fill="#696969"/>
<path d="M27.6045 13.8381H17V33.8508H28.4032" stroke="#696969" stroke-width="1.5" stroke-miterlimit="10"/>
<path d="M28.5 31.5V34H26L27.5 14L32 18.5V29L31 30L28.5 31.5Z" fill="#696969"/>
<path d="M32.0862 31.6755V18.1411" stroke="#696969" stroke-width="1.5" stroke-miterlimit="10"/>
<path d="M32.0861 18.142H27.6045V13.8381" stroke="#696969" stroke-width="1.5" stroke-miterlimit="10"/>
<path d="M27.072 13.7048L27.2499 13.8374L27.604 14.1479L31.8205 18.1413L32.0857 18.4081L32.3525 18.6296" stroke="#696969" stroke-width="1.5" stroke-miterlimit="10"/>
<path d="M19.6621 18.4526H23.4778" stroke="#C4C4C4" stroke-width="1.2" stroke-miterlimit="10" stroke-linecap="round"/>
<path d="M19.4399 22.2686H29.2896" stroke="#C4C4C4" stroke-width="1.2" stroke-miterlimit="10" stroke-linecap="round"/>
<path d="M19.4399 26.0847H29.2896" stroke="#C4C4C4" stroke-width="1.2" stroke-miterlimit="10" stroke-linecap="round"/>
<path d="M19.4399 29.8562H29.2896" stroke="#C4C4C4" stroke-width="1.2" stroke-miterlimit="10" stroke-linecap="round"/>
<path d="M32.086 29.1462C31.643 28.9683 31.1984 28.8794 30.7101 28.8794C29.7336 28.8794 28.846 29.2788 28.1814 29.8996C27.4717 30.5657 26.9834 31.5407 26.9834 32.6061C26.9834 33.0491 27.0723 33.4937 27.2049 33.8478C27.7369 35.2674 29.1127 36.2876 30.7101 36.2876C32.7505 36.2876 34.4369 34.6013 34.4369 32.5609C34.4384 31.0103 33.4619 29.6796 32.086 29.1461L32.086 29.1462ZM32.6632 33.9836H31.9534V34.6934C31.9534 35.3142 31.4215 35.8477 30.799 35.8477C30.1782 35.8477 29.6447 35.3158 29.6447 34.6934V33.9836H28.9349C28.7571 33.9836 28.5355 33.9399 28.403 33.851C28.0473 33.6732 27.7821 33.2738 27.7821 32.8308C27.7821 32.5204 27.9147 32.2099 28.1378 32.0321C28.3593 31.8106 28.626 31.6764 28.9365 31.6764H29.6462V30.9666C29.6462 30.3458 30.1782 29.8123 30.8006 29.8123C31.1111 29.8123 31.4215 29.9449 31.5993 30.1679C31.8208 30.3895 31.955 30.6562 31.955 30.9666V31.6764H32.6648C33.2856 31.6764 33.8191 32.2083 33.8191 32.8308C33.8176 33.4516 33.2841 33.9836 32.6632 33.9836V33.9836Z" fill="#696969" stroke="#696969" stroke-width="1.5" stroke-miterlimit="10" stroke-linecap="round"/>
<path d="M32.086 31.6755H31.9534" stroke="#696969" stroke-width="1.5" stroke-miterlimit="10" stroke-linecap="round"/>
</svg>
