<svg width="48" height="48" viewBox="0 0 48 48" fill="none" xmlns="http://www.w3.org/2000/svg">
<circle cx="24" cy="24" r="24" fill="#C4C4C4"/>
<path d="M37.9875 24.885C36.4699 22.5163 34.369 20.5368 31.9144 19.1642C29.3806 17.7495 26.5013 17 23.5807 17C20.6617 17 17.7808 17.7496 15.2471 19.1642C12.7912 20.5353 10.6891 22.5148 9.17155 24.885L9 25.1516L9.17155 25.4182C10.6892 27.7909 12.7901 29.7664 15.2447 31.139C17.7785 32.5537 20.6578 33.3032 23.5784 33.3032C26.4974 33.3032 29.3783 32.5537 31.912 31.139C34.3665 29.7666 36.4673 27.7871 37.9852 25.4182L38.1567 25.1516L37.9875 24.885ZM23.5797 30.1505C20.8243 30.1505 18.5808 27.9071 18.5808 25.1516C18.5808 22.3961 20.8242 20.1527 23.5797 20.1527C26.3352 20.1527 28.5786 22.3961 28.5786 25.1516C28.5786 27.9071 26.3352 30.1505 23.5797 30.1505V30.1505Z" fill="#696969"/>
<path d="M23.8108 21.4064V22.726C22.4581 22.726 21.3668 23.8319 21.3668 25.1832H20.0471C20.0458 23.1061 21.7323 21.4062 23.8109 21.4062L23.8108 21.4064Z" fill="#696969"/>
</svg>
